<?xml version="1.0" standalone="no"?>
<!DOCTYPE svg PUBLIC "-//W3C//DTD SVG 20010904//EN"
 "http://www.w3.org/TR/2001/REC-SVG-20010904/DTD/svg10.dtd">
<svg version="1.0" xmlns="http://www.w3.org/2000/svg"
 width="512.000000pt" height="512.000000pt" viewBox="0 0 512.000000 512.000000"
 preserveAspectRatio="xMidYMid meet" style="background: #fff; border-radius: 100%; overflow: visible;">

<g transform="translate(0.000000,512.000000) scale(0.100000,-0.100000)"
fill="#585858" stroke="none">
<path d="M2210 5100 c-383 -59 -695 -172 -1014 -367 -300 -185 -629 -515 -813
-818 -261 -429 -383 -861 -383 -1355 0 -496 125 -936 387 -1364 185 -300 515
-629 818 -813 429 -261 861 -383 1355 -383 496 0 936 125 1364 387 300 185
629 515 813 818 261 429 383 861 383 1355 0 496 -125 936 -387 1364 -185 300
-515 629 -818 813 -324 197 -628 306 -1013 363 -176 26 -521 26 -692 0z m590
-488 c112 -44 209 -142 251 -256 15 -39 25 -93 28 -155 l6 -95 153 -62 c143
-58 182 -75 322 -144 177 -86 300 -170 410 -281 165 -166 230 -329 233 -584 4
-267 -45 -511 -199 -992 -30 -95 -57 -179 -60 -186 -3 -9 18 -27 62 -53 154
-90 233 -242 222 -423 -12 -175 -119 -321 -283 -383 -85 -32 -245 -32 -325 0
-114 45 -209 142 -252 257 -19 49 -23 79 -23 165 1 121 19 182 83 265 81 107
193 164 340 174 l86 6 74 225 c82 254 154 534 177 691 20 140 20 339 -1 432
-54 248 -255 452 -619 627 -115 55 -411 180 -428 180 -2 0 -21 -27 -41 -59
-183 -296 -634 -276 -781 35 -14 30 -29 54 -34 54 -18 0 -375 -146 -488 -200
-376 -179 -568 -366 -634 -617 -42 -162 -23 -441 51 -735 65 -257 179 -608
201 -619 8 -4 41 -12 74 -18 171 -31 309 -168 346 -342 15 -71 6 -192 -20
-259 -43 -112 -141 -208 -256 -252 -85 -32 -245 -32 -325 0 -114 45 -209 142
-252 257 -32 85 -32 245 0 325 46 116 143 209 262 254 36 13 64 28 63 33 -1 4
-29 96 -62 203 -59 187 -124 421 -135 485 -3 17 -14 79 -26 140 -27 147 -35
326 -20 445 43 333 245 564 670 766 149 71 184 86 343 148 89 35 170 66 180
69 14 5 17 18 17 71 0 198 141 377 337 426 64 16 211 6 273 -18z"/>
</g>
</svg>
